Coordinates
version=1
nRows=16
nColumns=42
inDegrees=yes

Units are S.I. units (second, meters, Newtons, ...)
If the header above contains a line with 'inDegrees', this indicates whether rotational values are in degrees (yes) or radians (no).

endheader
time	pelvis_tilt	pelvis_list	pelvis_rotation	pelvis_tx	pelvis_ty	pelvis_tz	hip_flexion_r	hip_adduction_r	hip_rotation_r	knee_angle_r	knee_adduction_r	knee_angle_r_beta	ankle_angle_r	subtalar_angle_r	mtp_angle_r	hip_flexion_l	hip_adduction_l	hip_rotation_l	knee_angle_l	knee_adduction_l	knee_angle_l_beta	ankle_angle_l	subtalar_angle_l	mtp_angle_l	lumbar_extension	lumbar_bending	lumbar_rotation	arm_flex_r	arm_add_r	arm_rot_r	elbow_flex_r	pro_sup_r	wrist_flex_r	wrist_dev_r	arm_flex_l	arm_add_l	arm_rot_l	elbow_flex_l	pro_sup_l	wrist_flex_l	wrist_dev_l
      1.07000000	      8.97368205	     -2.98031383	      3.24682326	     -1.01752520	      0.90475312	      0.20948837	     -1.07455639	      4.62411709	     -9.94203601	     24.12201589	      7.25724586	      0.42100860	     19.26203648	     12.92007708	     -7.88995663	     16.16463922	     -3.01673504	     -6.06231293	     71.91668146	     -5.27205095	      1.25518288	      8.01838136	    -16.68771126	     -7.88995663	    -20.08639753	      6.41216325	     -2.80560334	      7.27149975	    -12.02290596	    -10.46813730	     34.53542007	     90.00000001	      0.00000000	      0.00000000	     -5.86834339	     -6.75585922	    -27.58587434	     33.27076642	     90.00000001	      0.00000000	      0.00000000
      1.08000000	      9.18969414	     -2.71656229	      3.05933151	     -1.01058101	      0.90554508	      0.20995804	     -2.10798630	      4.47887987	     -9.25449014	     23.55958175	      7.36784220	      0.41119227	     19.52506497	     12.61059973	     -7.87775804	     17.06972509	     -2.42380242	     -6.13464792	     70.64197277	     -5.35920094	      1.23293501	      8.54762928	    -16.07991530	     -7.87775804	    -20.54421518	      6.08538905	     -2.61168645	      8.01101210	    -12.31290281	     -9.17255783	     34.64650440	     90.00000001	      0.00000000	      0.00000000	     -6.17254164	     -6.62417735	    -27.66548084	     34.01207151	     90.00000001	      0.00000000	      0.00000000
      1.09000000	      9.30004711	     -2.53275199	      2.85359079	     -1.00357777	      0.90607288	      0.21049447	     -2.91210175	      4.38480616	     -8.78437101	     23.23240851	      7.40702287	      0.40548202	     19.73959045	     12.39063030	     -7.86582439	     18.01605069	     -1.98645007	     -6.29294584	     69.12134095	     -5.45899938	      1.20639498	      8.95541986	    -15.38476049	     -7.86582439	    -20.84572916	      5.83653166	     -2.38210497	      8.69270289	    -12.45471177	     -8.31933805	     34.76395954	     90.00000001	      0.00000000	      0.00000000	     -6.39288223	     -6.41160628	    -27.72396664	     34.58111105	     90.00000001	      0.00000000	      0.00000000
      1.10000000	      9.20485655	     -2.35298125	      2.65057632	     -0.99670328	      0.90613540	      0.21111495	     -3.37249263	      4.40108794	     -8.46548823	     23.06592432	      7.13974924	      0.40257632	     19.91849006	     12.31695712	     -7.85892180	     19.18212511	     -1.58008688	     -6.25148577	     67.48475852	     -5.32018668	      1.17783123	      9.24366259	    -14.69029644	     -7.85892180	    -20.90219850	      5.57164273	     -2.11438013	      9.35339011	    -12.53155569	     -7.94665839	     34.92635311	     90.00000001	      0.00000000	      0.00000000	     -6.57240892	     -6.24838294	    -27.72443620	     35.04289820	     90.00000001	      0.00000000	      0.00000000
      1.11000000	      9.41144387	     -2.07733867	      2.35734916	     -0.98957826	      0.90678387	      0.21167850	     -4.32498256	      4.14417808	     -7.94897713	     22.67905930	      7.25715803	      0.39582426	     20.30864103	     12.29313955	     -7.84836223	     19.70857819	     -1.09615890	     -6.54939109	     65.26236595	     -5.36047321	      1.13904316	      9.59751761	    -13.77345139	     -7.84836223	    -21.30109665	      5.19630118	     -1.90082695	     10.15118942	    -12.62699399	     -7.13268158	     34.78119917	     90.00000001	      0.00000000	      0.00000000	     -6.88602492	     -6.02977876	    -27.86464388	     35.77370690	     90.00000001	      0.00000000	      0.00000000
      1.12000000	      9.22667309	     -1.96978996	      2.11585443	     -0.98269194	      0.90653895	      0.21235515	     -4.64665550	      4.21831221	     -7.66878808	     22.55917598	      6.96691466	      0.39373190	     20.41595967	     12.29541263	     -7.84174884	     20.79647056	     -0.80004715	     -6.51646502	     63.15883153	     -5.20430447	      1.10232956	      9.71371312	    -12.92478555	     -7.84174884	    -21.25725881	      4.99310736	     -1.61263119	     10.74743103	    -12.66998055	     -6.77656323	     34.92803167	     90.00000001	      0.00000000	      0.00000000	     -7.07724706	     -5.82995360	    -27.88087030	     36.19508562	     90.00000001	      0.00000000	      0.00000000
      1.13000000	      9.46247687	     -1.69280078	      1.78773198	     -0.97528901	      0.90707938	      0.21289529	     -5.64949098	      3.88245704	     -7.25715307	     22.20402135	      7.14315888	      0.38753328	     20.81288343	     12.44941553	     -7.83066383	     21.01377143	     -0.34492008	     -6.97786605	     60.37685284	     -5.32230267	      1.05377487	     10.03768433	    -11.61577709	     -7.83066383	    -21.61819783	      4.60700782	     -1.41009218	     11.53129125	    -12.74309007	     -5.94844281	     34.69781437	     90.00000001	      0.00000000	      0.00000000	     -7.39054356	     -5.58037866	    -28.10012195	     36.85008698	     90.00000001	      0.00000000	      0.00000000
      1.14000000	      9.44854489	     -1.52169825	      1.50937119	     -0.96796593	      0.90703137	      0.21343226	     -6.28001258	      3.76591689	     -6.99825471	     21.96028987	      7.03482108	      0.38327936	     21.01920122	     12.71642659	     -7.81794552	     21.55335728	     -0.04490089	     -7.41393411	     57.61457214	     -5.41720414	      1.00556398	     10.32249357	    -10.08416300	     -7.81794552	    -21.69215792	      4.34121489	     -1.19968398	     12.13966342	    -12.79650191	     -5.30386981	     34.70014074	     90.00000001	      0.00000000	      0.00000000	     -7.62632524	     -5.33603989	    -28.27913441	     37.29612783	     90.00000001	      0.00000000	      0.00000000
      1.15000000	      9.13043504	     -1.57081960	      1.25166419	     -0.96091874	      0.90619911	      0.21406378	     -6.41882794	      3.96035034	     -6.79618841	     21.93490847	      6.75978823	      0.38283637	     21.17204186	     12.79174543	     -7.81218913	     22.51315907	      0.02844330	     -7.15692963	     55.03906486	     -5.07363156	      0.96061290	     10.35817859	     -9.22636904	     -7.81218913	    -21.44803414	      4.31688640	     -0.90855593	     12.68513125	    -12.82346586	     -5.06461156	     34.81447805	     90.00000001	      0.00000000	      0.00000000	     -7.86085349	     -5.09453689	    -28.27763123	     37.62782477	     90.00000001	      0.00000000	      0.00000000
      1.16000000	      9.23670332	     -1.34066911	      0.95059287	     -0.95350135	      0.90621819	      0.21455404	     -7.21115550	      3.67602531	     -6.59249934	     21.70728958	      6.80711809	      0.37886367	     21.64293158	     13.05706509	     -7.80437587	     22.59511556	      0.33788054	     -7.20233499	     51.82852471	     -4.70979990	      0.90457840	     10.63079228	     -7.76470417	     -7.80437587	    -21.64115132	      3.97772100	     -0.76789879	     13.41098947	    -12.74676543	     -4.52850072	     34.56399819	     90.00000001	      0.00000000	      0.00000000	     -8.10637354	     -4.85908750	    -28.42981083	     38.02672232	     90.00000001	      0.00000000	      0.00000000
      1.17000000	      9.17455293	     -1.26225488	      0.70948192	     -0.94602697	      0.90574606	      0.21489778	     -7.81282866	      3.55693245	     -6.48756604	     21.48412626	      6.80419932	      0.37496874	     21.89450247	     13.45030487	     -7.79666198	     22.90925316	      0.52640213	     -7.41825362	     48.71804191	     -4.65105175	      0.85029024	     10.84066438	     -6.16672272	     -7.79666198	    -21.63470721	      3.84147049	     -0.61901372	     13.98954754	    -12.74119927	     -4.07347548	     34.51406388	     90.00000001	      0.00000000	      0.00000000	     -8.33306442	     -4.59355242	    -28.56524422	     38.30777022	     90.00000001	      0.00000000	      0.00000000
      1.18000000	      9.30528693	     -1.14230998	      0.41119204	     -0.93810462	      0.90546479	      0.21513291	     -8.72175951	      3.30150547	     -6.59567796	     21.15197941	      6.84872825	      0.36917168	     22.17490957	     14.56083291	     -7.77845148	     22.88471610	      0.74137228	     -8.63142819	     45.44096249	     -5.28164378	      0.79309441	     11.54654038	     -2.79261379	     -7.77845148	    -21.78000463	      3.66350450	     -0.44025777	     14.49392663	    -12.81487814	     -3.37713982	     34.53749862	     90.00000001	      0.00000000	      0.00000000	     -8.56540049	     -4.30729954	    -28.84436968	     38.58729159	     90.00000001	      0.00000000	      0.00000000
      1.19000000	      9.20146497	     -1.10664534	      0.25039870	     -0.93055422	      0.90466546	      0.21530361	     -9.28237185	      3.18784684	     -6.55985447	     20.95708782	      6.92967063	      0.36577018	     22.49770535	     14.87250420	     -7.76797199	     23.13207803	      0.87156889	     -8.67125077	     42.36291793	     -5.05106447	      0.73937240	     11.76188432	     -1.27426154	     -7.76797199	    -21.70001192	      3.60180270	     -0.40219995	     15.03703686	    -12.73683289	     -3.04706847	     34.47880493	     90.00000001	      0.00000000	      0.00000000	     -8.75283534	     -4.10718088	    -28.88516430	     38.70662912	     90.00000001	      0.00000000	      0.00000000
      1.20000000	      8.82760500	     -1.25994307	      0.09541677	     -0.92329248	      0.90322565	      0.21538263	     -9.42417789	      3.39698110	     -6.37664018	     20.88902862	      6.79012217	      0.36458233	     22.71086763	     15.00016649	     -7.76311444	     23.79321613	      0.78456826	     -8.42967086	     39.64312960	     -4.69509142	      0.69190314	     11.71163935	     -0.28917066	     -7.76311444	    -21.35141523	      3.77725542	     -0.22767905	     15.46432283	    -12.75612791	     -2.85939601	     34.57002279	     90.00000001	      0.00000000	      0.00000000	     -8.90802025	     -3.82735736	    -28.84460004	     38.79464627	     90.00000001	      0.00000000	      0.00000000
      1.21000000	      9.16055151	     -1.05362931	     -0.17108147	     -0.91502817	      0.90306041	      0.21536361	    -10.69789137	      2.88910121	     -6.43842325	     20.40268858	      7.13672077	      0.35609409	     23.05391003	     15.84596718	     -7.74555759	     23.26769979	      0.99020374	     -9.85842346	     36.39522790	     -5.08622166	      0.63521656	     12.25190024	      3.45798794	     -7.74555759	    -21.68867033	      3.52999972	     -0.20464359	     15.95563645	    -12.72648581	     -2.27201223	     34.55914205	     90.00000001	      0.00000000	      0.00000000	     -9.07175371	     -3.61213299	    -29.03727654	     38.78626510	     90.00000001	      0.00000000	      0.00000000
      1.22000000	      9.12952761	     -1.02433020	     -0.29208678	     -0.90726435	      0.90210558	      0.21517346	    -11.42151565	      2.69738507	     -6.32895365	     20.09213012	      7.37596100	      0.35067382	     23.34142117	     15.98327539	     -7.73718247	     23.28006988	      1.08300708	    -10.20048024	     33.62857940	     -4.92874037	      0.58692943	     12.24157600	      4.98457392	     -7.73718247	    -21.66141574	      3.52367434	     -0.22615135	     16.40598787	    -12.66181576	     -1.99563046	     34.55229122	     90.00000001	      0.00000000	      0.00000000	     -9.16229764	     -3.43109166	    -29.03152572	     38.64324940	     90.00000001	      0.00000000	      0.00000000
